<svg width="17" height="18" viewBox="0 0 17 18" fill="none" xmlns="http://www.w3.org/2000/svg">
<path d="M8.49987 9.66906H8.50656M11.1758 5.65517V4.31721C11.1758 3.96236 11.0348 3.62204 10.7839 3.37113C10.533 3.12021 10.1927 2.97925 9.83784 2.97925H7.16191C6.80706 2.97925 6.46674 3.12021 6.21583 3.37113C5.96491 3.62204 5.82395 3.96236 5.82395 4.31721V5.65517M15.1897 10.338C13.2047 11.6486 10.8785 12.3472 8.49987 12.3472C6.12128 12.3472 3.79507 11.6486 1.81006 10.338" stroke="#F14A67" stroke-width="1.2" stroke-linecap="round" stroke-linejoin="round"/>
<path d="M13.8517 5.65527H3.14802C2.40908 5.65527 1.81006 6.2543 1.81006 6.99324V13.6831C1.81006 14.422 2.40908 15.021 3.14802 15.021H13.8517C14.5907 15.021 15.1897 14.422 15.1897 13.6831V6.99324C15.1897 6.2543 14.5907 5.65527 13.8517 5.65527Z" stroke="#F14A67" stroke-width="1.2" stroke-linecap="round" stroke-linejoin="round"/>
</svg>
