<?xml version="1.0" standalone="no"?>
<!DOCTYPE svg PUBLIC "-//W3C//DTD SVG 20010904//EN"
 "http://www.w3.org/TR/2001/REC-SVG-20010904/DTD/svg10.dtd">
<svg version="1.0" xmlns="http://www.w3.org/2000/svg"
 width="139.000000pt" height="100.000000pt" viewBox="0 0 139.000000 100.000000"
 preserveAspectRatio="xMidYMid meet">

<g transform="translate(0.000000,100.000000) scale(0.100000,-0.100000)"
fill="#000000" stroke="none">
<path d="M0 606 l0 -394 195 -106 195 -106 496 2 496 3 -191 103 -191 104 0
394 0 394 -500 0 -500 0 0 -394z m165 283 c-3 -4 -12 -6 -20 -2 -23 8 -18 -13
7 -29 28 -19 18 -48 -17 -48 -14 0 -25 5 -25 11 0 6 8 8 19 4 30 -9 36 14 7
25 -27 10 -36 45 -13 53 18 6 48 -4 42 -14z m84 -28 c15 -46 15 -69 -1 -53
-15 15 -48 16 -48 2 0 -5 -5 -10 -11 -10 -11 0 -7 21 17 79 16 38 25 34 43
-18z m98 31 l23 21 0 -57 c0 -36 -4 -55 -10 -51 -5 3 -10 18 -10 32 0 20 -3
23 -14 14 -10 -9 -17 -7 -27 6 -13 15 -15 12 -20 -23 -5 -35 -6 -32 -8 21 l-1
59 22 -22 22 -22 23 22z m87 12 c9 -3 14 -10 11 -15 -3 -4 -12 -6 -19 -3 -26
10 -26 -13 0 -25 28 -13 29 -38 2 -55 -14 -8 -22 -7 -35 8 -17 18 -17 18 10
12 34 -8 34 2 0 30 -24 19 -26 24 -14 38 15 18 21 19 45 10z m48 -43 c5 -51
28 -53 28 -2 0 22 5 43 11 46 7 5 9 -9 7 -41 -6 -88 -68 -85 -68 4 0 53 17 47
22 -7z m130 19 c4 35 4 35 15 10 7 -14 12 -20 12 -13 2 22 41 36 68 24 13 -6
21 -15 18 -21 -4 -6 -13 -5 -25 2 -20 13 -50 -3 -50 -27 0 -20 28 -38 47 -30
17 8 17 8 1 12 -27 7 -21 23 7 23 31 0 35 -34 6 -50 -28 -14 -38 -13 -61 10
-15 15 -20 16 -20 6 0 -30 -20 -25 -44 11 l-26 38 0 -38 c0 -23 -4 -36 -10
-32 -11 7 -14 88 -3 99 4 4 20 -8 34 -26 l27 -33 4 35z m-452 -120 c0 -5 -6
-7 -14 -4 -8 3 -17 1 -21 -5 -3 -6 5 -15 19 -21 31 -11 35 -46 6 -55 -21 -7
-40 0 -40 15 0 4 9 6 20 3 27 -7 26 11 -2 29 -14 9 -19 20 -15 31 7 18 47 24
47 7z m49 -22 l9 -33 7 33 c4 17 13 32 20 32 8 0 17 -15 21 -32 l7 -33 10 33
c6 17 14 32 18 32 11 0 11 -2 -2 -56 -13 -52 -24 -55 -42 -11 l-14 32 -7 -32
c-12 -54 -31 -39 -50 40 -9 39 11 34 23 -5z m-37 -148 c9 -27 12 -50 7 -50 -5
0 -9 5 -9 10 0 14 -33 12 -49 -2 -11 -11 -12 -8 -7 14 10 44 25 78 34 78 4 0
15 -22 24 -50z m107 36 c10 -12 6 -14 -21 -13 -29 2 -33 -1 -33 -23 0 -22 4
-25 33 -24 17 1 32 -2 32 -7 0 -14 -52 -23 -69 -12 -20 13 -26 60 -10 79 15
18 53 18 68 0z m89 -35 c8 -23 11 -45 7 -49 -4 -4 -10 -1 -12 6 -3 6 -13 12
-23 12 -10 0 -20 -6 -23 -12 -2 -7 -8 -10 -12 -6 -10 10 26 99 38 95 6 -2 17
-22 25 -46z m83 39 c22 -12 26 -59 7 -78 -7 -7 -25 -12 -40 -12 -27 0 -28 2
-28 50 0 44 3 50 21 50 11 0 29 -5 40 -10z m89 0 c0 -5 -9 -10 -20 -10 -11 0
-20 -4 -20 -10 0 -5 9 -10 20 -10 11 0 20 -4 20 -10 0 -5 -9 -10 -20 -10 -11
0 -20 -4 -20 -10 0 -5 9 -10 20 -10 11 0 20 -4 20 -10 0 -5 -13 -10 -30 -10
-29 0 -30 1 -30 50 0 49 1 50 30 50 17 0 30 -4 30 -10z m43 -10 l14 -20 18 20
c28 31 35 24 35 -30 0 -27 -4 -50 -10 -50 -5 0 -10 14 -10 32 0 30 -1 30 -19
14 -18 -17 -20 -17 -30 1 -9 15 -10 13 -11 -14 0 -18 -4 -33 -10 -33 -5 0 -10
23 -10 50 0 53 10 62 33 30z m102 3 c6 -17 7 -17 21 1 20 28 30 11 10 -18 -9
-14 -16 -34 -16 -46 0 -32 -17 -23 -22 13 -3 17 -8 40 -13 50 -4 10 -3 17 3
17 5 0 13 -8 17 -17z m-525 -123 c0 -5 -9 -10 -20 -10 -27 0 -25 -18 3 -30
l22 -9 -22 0 c-14 -1 -23 -9 -26 -23 -2 -13 -5 1 -6 30 -1 49 0 52 24 52 14 0
25 -4 25 -10z m92 -7 c26 -23 23 -59 -7 -79 -23 -15 -27 -15 -50 0 -29 19 -32
51 -8 78 20 22 41 23 65 1z m85 5 c8 -13 11 -88 4 -88 -3 0 -13 7 -23 17 -17
15 -18 15 -18 0 0 -10 -4 -17 -10 -17 -5 0 -10 23 -10 50 0 46 2 50 24 50 14
0 28 -6 33 -12z m-59 -141 c27 -21 0 -87 -36 -87 -24 0 -52 31 -52 56 0 43 50
61 88 31z m-143 -4 c6 -17 7 -17 16 0 6 9 15 17 21 17 6 0 3 -11 -6 -25 -9
-13 -16 -36 -16 -50 0 -15 -4 -24 -10 -20 -5 3 -10 19 -10 35 0 16 -4 32 -10
35 -12 8 -13 25 -1 25 5 0 12 -8 16 -17z m185 -23 c0 -29 4 -40 15 -40 11 0
15 11 15 40 0 22 5 40 10 40 16 0 12 -76 -5 -90 -8 -6 -23 -9 -35 -5 -16 5
-20 15 -20 51 0 24 5 44 10 44 6 0 10 -18 10 -40z m118 29 c-13 -7 -18 -22
-18 -50 0 -24 -4 -38 -10 -34 -5 3 -10 24 -10 45 0 21 -6 41 -12 43 -7 3 5 6
27 6 32 0 36 -2 23 -10z m42 -9 c0 -12 7 -20 16 -20 9 0 18 9 21 20 3 11 9 20
14 20 12 0 11 -87 -1 -95 -5 -3 -10 3 -10 14 0 14 -6 21 -20 21 -13 0 -20 -7
-20 -20 0 -11 -4 -20 -10 -20 -5 0 -10 23 -10 50 0 28 5 50 10 50 6 0 10 -9
10 -20z"/>
<path d="M216 855 c-3 -8 -1 -15 4 -15 6 0 10 7 10 15 0 8 -2 15 -4 15 -2 0
-6 -7 -10 -15z"/>
<path d="M140 593 c0 -13 5 -23 10 -23 13 0 13 11 0 30 -8 12 -10 11 -10 -7z"/>
<path d="M330 590 c0 -5 5 -10 10 -10 6 0 10 5 10 10 0 6 -4 10 -10 10 -5 0
-10 -4 -10 -10z"/>
<path d="M410 590 c0 -25 4 -31 18 -28 11 2 17 12 17 28 0 16 -6 26 -17 28
-14 3 -18 -3 -18 -28z"/>
<path d="M203 483 c-18 -7 -16 -38 2 -53 20 -17 47 5 43 34 -3 21 -22 29 -45
19z"/>
<path d="M300 471 c0 -14 5 -19 15 -14 17 6 15 25 -3 31 -7 2 -12 -5 -12 -17z"/>
<path d="M222 348 c-15 -15 -16 -45 -2 -53 17 -10 50 5 50 24 0 16 -18 41 -30
41 -3 0 -11 -5 -18 -12z"/>
</g>
</svg>
