<svg width="13" height="12" viewBox="0 0 13 12" fill="none" xmlns="http://www.w3.org/2000/svg">
<path d="M8.09378 2.28149L10.2188 4.40654M11.3737 3.24414C11.6546 2.96332 11.8125 2.58243 11.8125 2.18525C11.8126 1.78807 11.6548 1.40714 11.374 1.12626C11.0932 0.845376 10.7123 0.68755 10.3151 0.6875C9.91797 0.68745 9.53704 0.845181 9.25616 1.12599L2.16604 8.21781C2.04269 8.3408 1.95147 8.49222 1.90041 8.65876L1.19862 10.9708C1.18489 11.0168 1.18385 11.0656 1.19562 11.112C1.20739 11.1585 1.23152 11.201 1.26545 11.2348C1.29939 11.2687 1.34186 11.2928 1.38836 11.3045C1.43487 11.3162 1.48367 11.3151 1.52959 11.3013L3.84215 10.6C4.00852 10.5494 4.15993 10.4587 4.28309 10.336L11.3737 3.24414Z" stroke="#343434" stroke-linecap="round" stroke-linejoin="round"/>
</svg>
