<svg width="192" height="64" viewBox="0 0 192 64" fill="none" xmlns="http://www.w3.org/2000/svg">
<path d="M9.67922 32.36C8.50589 31.96 7.43922 31.56 6.47922 31.16C5.51922 30.7333 4.69255 30.2267 3.99922 29.64C3.30589 29.0533 2.75922 28.36 2.35922 27.56C1.98589 26.7333 1.79922 25.7333 1.79922 24.56C1.79922 22.2933 2.66589 20.48 4.39922 19.12C6.15922 17.76 8.61255 17.08 11.7592 17.08C12.9059 17.08 13.9726 17.16 14.9592 17.32C15.9459 17.48 16.7859 17.7333 17.4792 18.08C18.1992 18.4 18.7592 18.8267 19.1592 19.36C19.5592 19.8667 19.7592 20.4667 19.7592 21.16C19.7592 21.8533 19.5992 22.4533 19.2792 22.96C18.9592 23.44 18.5726 23.8533 18.1192 24.2C17.5326 23.8267 16.7459 23.5067 15.7592 23.24C14.7726 22.9467 13.6926 22.8 12.5192 22.8C11.3192 22.8 10.4392 22.9733 9.87922 23.32C9.31922 23.64 9.03922 24.0533 9.03922 24.56C9.03922 24.96 9.21255 25.2933 9.55922 25.56C9.90589 25.8 10.4259 26.0267 11.1192 26.24L13.2392 26.92C15.7459 27.72 17.6659 28.7467 18.9992 30C20.3592 31.2267 21.0392 32.9067 21.0392 35.04C21.0392 37.3067 20.1459 39.1467 18.3592 40.56C16.5726 41.9467 13.9459 42.64 10.4792 42.64C9.25255 42.64 8.10589 42.5333 7.03922 42.32C5.99922 42.1333 5.07922 41.8533 4.27922 41.48C3.50589 41.08 2.89255 40.6 2.43922 40.04C2.01255 39.4533 1.79922 38.7867 1.79922 38.04C1.79922 37.2667 2.02589 36.6133 2.47922 36.08C2.93255 35.52 3.42589 35.0933 3.95922 34.8C4.70589 35.3867 5.61255 35.8933 6.67922 36.32C7.77255 36.7467 8.95922 36.96 10.2392 36.96C11.5459 36.96 12.4659 36.76 12.9992 36.36C13.5326 35.96 13.7992 35.4933 13.7992 34.96C13.7992 34.4267 13.5859 34.0267 13.1592 33.76C12.7326 33.4667 12.1326 33.1867 11.3592 32.92L9.67922 32.36ZM31.7105 32.36C30.5371 31.96 29.4705 31.56 28.5105 31.16C27.5505 30.7333 26.7238 30.2267 26.0305 29.64C25.3371 29.0533 24.7905 28.36 24.3905 27.56C24.0171 26.7333 23.8305 25.7333 23.8305 24.56C23.8305 22.2933 24.6971 20.48 26.4305 19.12C28.1905 17.76 30.6438 17.08 33.7905 17.08C34.9371 17.08 36.0038 17.16 36.9905 17.32C37.9771 17.48 38.8171 17.7333 39.5105 18.08C40.2305 18.4 40.7905 18.8267 41.1905 19.36C41.5905 19.8667 41.7905 20.4667 41.7905 21.16C41.7905 21.8533 41.6305 22.4533 41.3105 22.96C40.9905 23.44 40.6038 23.8533 40.1505 24.2C39.5638 23.8267 38.7771 23.5067 37.7905 23.24C36.8038 22.9467 35.7238 22.8 34.5505 22.8C33.3505 22.8 32.4705 22.9733 31.9105 23.32C31.3505 23.64 31.0705 24.0533 31.0705 24.56C31.0705 24.96 31.2438 25.2933 31.5905 25.56C31.9371 25.8 32.4571 26.0267 33.1505 26.24L35.2705 26.92C37.7771 27.72 39.6971 28.7467 41.0305 30C42.3905 31.2267 43.0705 32.9067 43.0705 35.04C43.0705 37.3067 42.1771 39.1467 40.3905 40.56C38.6038 41.9467 35.9771 42.64 32.5105 42.64C31.2838 42.64 30.1371 42.5333 29.0705 42.32C28.0305 42.1333 27.1105 41.8533 26.3105 41.48C25.5371 41.08 24.9238 40.6 24.4705 40.04C24.0438 39.4533 23.8305 38.7867 23.8305 38.04C23.8305 37.2667 24.0571 36.6133 24.5105 36.08C24.9638 35.52 25.4571 35.0933 25.9905 34.8C26.7371 35.3867 27.6438 35.8933 28.7105 36.32C29.8038 36.7467 30.9905 36.96 32.2705 36.96C33.5771 36.96 34.4971 36.76 35.0305 36.36C35.5638 35.96 35.8305 35.4933 35.8305 34.96C35.8305 34.4267 35.6171 34.0267 35.1905 33.76C34.7638 33.4667 34.1638 33.1867 33.3905 32.92L31.7105 32.36ZM52.178 18.48C52.6313 18.2133 53.3113 17.96 54.218 17.72C55.1513 17.48 56.0846 17.36 57.018 17.36C58.3513 17.36 59.5246 17.56 60.538 17.96C61.578 18.3333 62.2446 18.9333 62.538 19.76C63.018 21.1467 63.538 22.76 64.098 24.6C64.658 26.44 65.218 28.3467 65.778 30.32C66.338 32.2667 66.8846 34.2 67.418 36.12C67.9513 38.0133 68.418 39.6933 68.818 41.16C68.498 41.5333 68.018 41.8267 67.378 42.04C66.738 42.28 65.978 42.4 65.098 42.4C64.458 42.4 63.9113 42.3467 63.458 42.24C63.0313 42.1333 62.6713 41.9733 62.378 41.76C62.1113 41.5467 61.8846 41.2667 61.698 40.92C61.538 40.5733 61.3913 40.1733 61.258 39.72L60.538 36.96H53.298C53.0846 37.76 52.8713 38.5867 52.658 39.44C52.4446 40.2933 52.2313 41.12 52.018 41.92C51.6446 42.0533 51.2446 42.16 50.818 42.24C50.418 42.3467 49.9246 42.4 49.338 42.4C47.978 42.4 46.9646 42.1733 46.298 41.72C45.658 41.24 45.338 40.5867 45.338 39.76C45.338 39.3867 45.3913 39.0133 45.498 38.64C45.6046 38.2667 45.7246 37.8267 45.858 37.32C46.0446 36.6 46.298 35.7067 46.618 34.64C46.9646 33.5733 47.338 32.4267 47.738 31.2C48.138 29.9467 48.5646 28.6667 49.018 27.36C49.4713 26.0533 49.898 24.8267 50.298 23.68C50.698 22.5067 51.058 21.4667 51.378 20.56C51.7246 19.6533 51.9913 18.96 52.178 18.48ZM56.978 23.64C56.6046 24.76 56.178 26.0133 55.698 27.4C55.2446 28.76 54.8313 30.1467 54.458 31.56H59.418C59.0446 30.12 58.658 28.72 58.258 27.36C57.8846 25.9733 57.538 24.7333 57.218 23.64H56.978ZM89.1361 17.76C89.3228 18.0533 89.4828 18.4533 89.6161 18.96C89.7761 19.44 89.8561 19.9467 89.8561 20.48C89.8561 21.52 89.6294 22.2667 89.1761 22.72C88.7494 23.1467 88.1628 23.36 87.4161 23.36H79.0161V27.88H87.7761C87.9894 28.1733 88.1628 28.56 88.2961 29.04C88.4561 29.52 88.5361 30.0267 88.5361 30.56C88.5361 31.5733 88.3094 32.3067 87.8561 32.76C87.4294 33.1867 86.8428 33.4 86.0961 33.4H79.0961V41.84C78.8028 41.92 78.3361 42 77.6961 42.08C77.0828 42.16 76.4694 42.2 75.8561 42.2C75.2428 42.2 74.6961 42.1467 74.2161 42.04C73.7628 41.96 73.3761 41.8 73.0561 41.56C72.7361 41.32 72.4961 40.9867 72.3361 40.56C72.1761 40.1333 72.0961 39.5733 72.0961 38.88V21.48C72.0961 20.3333 72.4294 19.4267 73.0961 18.76C73.7628 18.0933 74.6694 17.76 75.8161 17.76H89.1361Z" fill="#3396F4"/>
<path d="M102.208 42.64C100.634 42.64 99.1677 42.4267 97.8077 42C96.4743 41.5467 95.301 40.88 94.2877 40C93.301 39.12 92.5143 38.0133 91.9277 36.68C91.3677 35.3467 91.0877 33.7867 91.0877 32C91.0877 30.24 91.3677 28.7333 91.9277 27.48C92.5143 26.2 93.2743 25.16 94.2077 24.36C95.141 23.5333 96.2077 22.9333 97.4077 22.56C98.6077 22.16 99.8343 21.96 101.088 21.96C102.501 21.96 103.781 22.1733 104.928 22.6C106.101 23.0267 107.101 23.6133 107.928 24.36C108.781 25.1067 109.434 26 109.888 27.04C110.368 28.08 110.608 29.2133 110.608 30.44C110.608 31.3467 110.354 32.04 109.848 32.52C109.341 33 108.634 33.3067 107.728 33.44L97.8477 34.92C98.141 35.8 98.741 36.4667 99.6477 36.92C100.554 37.3467 101.594 37.56 102.768 37.56C103.861 37.56 104.888 37.4267 105.848 37.16C106.834 36.8667 107.634 36.5333 108.248 36.16C108.674 36.4267 109.034 36.8 109.328 37.28C109.621 37.76 109.768 38.2667 109.768 38.8C109.768 40 109.208 40.8933 108.088 41.48C107.234 41.9333 106.274 42.24 105.208 42.4C104.141 42.56 103.141 42.64 102.208 42.64ZM101.088 26.92C100.448 26.92 99.8877 27.0267 99.4077 27.24C98.9543 27.4533 98.581 27.7333 98.2877 28.08C97.9943 28.4 97.7677 28.7733 97.6077 29.2C97.4743 29.6 97.3943 30.0133 97.3677 30.44L104.208 29.32C104.128 28.7867 103.834 28.2533 103.328 27.72C102.821 27.1867 102.074 26.92 101.088 26.92ZM134.001 32.28C134.001 33.9333 133.747 35.4133 133.241 36.72C132.734 38 132.014 39.08 131.081 39.96C130.174 40.84 129.081 41.5067 127.801 41.96C126.521 42.4133 125.094 42.64 123.521 42.64C121.947 42.64 120.521 42.4 119.241 41.92C117.961 41.44 116.854 40.76 115.921 39.88C115.014 38.9733 114.307 37.88 113.801 36.6C113.294 35.32 113.041 33.88 113.041 32.28C113.041 30.7067 113.294 29.28 113.801 28C114.307 26.72 115.014 25.64 115.921 24.76C116.854 23.8533 117.961 23.16 119.241 22.68C120.521 22.2 121.947 21.96 123.521 21.96C125.094 21.96 126.521 22.2133 127.801 22.72C129.081 23.2 130.174 23.8933 131.081 24.8C132.014 25.68 132.734 26.76 133.241 28.04C133.747 29.32 134.001 30.7333 134.001 32.28ZM120.001 32.28C120.001 33.9067 120.307 35.16 120.921 36.04C121.561 36.8933 122.441 37.32 123.561 37.32C124.681 37.32 125.534 36.88 126.121 36C126.734 35.12 127.041 33.88 127.041 32.28C127.041 30.68 126.734 29.4533 126.121 28.6C125.507 27.72 124.641 27.28 123.521 27.28C122.401 27.28 121.534 27.72 120.921 28.6C120.307 29.4533 120.001 30.68 120.001 32.28ZM146.238 21.96C147.838 21.96 149.318 22.1733 150.678 22.6C152.065 23 153.252 23.6267 154.238 24.48C155.225 25.3333 155.998 26.4133 156.558 27.72C157.118 29 157.398 30.5333 157.398 32.32C157.398 34.0267 157.158 35.52 156.678 36.8C156.198 38.08 155.518 39.16 154.638 40.04C153.758 40.8933 152.692 41.5333 151.438 41.96C150.212 42.3867 148.838 42.6 147.318 42.6C146.172 42.6 145.105 42.4267 144.118 42.08V48.72C143.852 48.8 143.425 48.88 142.838 48.96C142.252 49.0667 141.652 49.12 141.038 49.12C140.452 49.12 139.918 49.08 139.438 49C138.985 48.92 138.598 48.76 138.278 48.52C137.958 48.28 137.718 47.9467 137.558 47.52C137.398 47.12 137.318 46.5867 137.318 45.92V26.72C137.318 26 137.465 25.4133 137.758 24.96C138.078 24.5067 138.505 24.0933 139.038 23.72C139.865 23.1867 140.892 22.76 142.118 22.44C143.345 22.12 144.718 21.96 146.238 21.96ZM146.318 37.24C149.065 37.24 150.438 35.6 150.438 32.32C150.438 30.6133 150.092 29.3467 149.398 28.52C148.732 27.6933 147.758 27.28 146.478 27.28C145.972 27.28 145.518 27.3467 145.118 27.48C144.718 27.5867 144.372 27.72 144.078 27.88V36.68C144.398 36.84 144.745 36.9733 145.118 37.08C145.492 37.1867 145.892 37.24 146.318 37.24ZM167.637 41.96C167.343 42.0133 166.903 42.08 166.317 42.16C165.757 42.2667 165.183 42.32 164.597 42.32C164.01 42.32 163.477 42.28 162.997 42.2C162.543 42.12 162.157 41.96 161.837 41.72C161.517 41.48 161.263 41.16 161.077 40.76C160.917 40.3333 160.837 39.7867 160.837 39.12V15.92C161.13 15.8667 161.557 15.8 162.117 15.72C162.703 15.6133 163.29 15.56 163.877 15.56C164.463 15.56 164.983 15.6 165.437 15.68C165.917 15.76 166.317 15.92 166.637 16.16C166.957 16.4 167.197 16.7333 167.357 17.16C167.543 17.56 167.637 18.0933 167.637 18.76V41.96ZM182.208 42.64C180.634 42.64 179.168 42.4267 177.808 42C176.474 41.5467 175.301 40.88 174.288 40C173.301 39.12 172.514 38.0133 171.928 36.68C171.368 35.3467 171.088 33.7867 171.088 32C171.088 30.24 171.368 28.7333 171.928 27.48C172.514 26.2 173.274 25.16 174.208 24.36C175.141 23.5333 176.208 22.9333 177.408 22.56C178.608 22.16 179.834 21.96 181.088 21.96C182.501 21.96 183.781 22.1733 184.928 22.6C186.101 23.0267 187.101 23.6133 187.928 24.36C188.781 25.1067 189.434 26 189.888 27.04C190.368 28.08 190.608 29.2133 190.608 30.44C190.608 31.3467 190.354 32.04 189.848 32.52C189.341 33 188.634 33.3067 187.728 33.44L177.848 34.92C178.141 35.8 178.741 36.4667 179.648 36.92C180.554 37.3467 181.594 37.56 182.768 37.56C183.861 37.56 184.888 37.4267 185.848 37.16C186.834 36.8667 187.634 36.5333 188.248 36.16C188.674 36.4267 189.034 36.8 189.328 37.28C189.621 37.76 189.768 38.2667 189.768 38.8C189.768 40 189.208 40.8933 188.088 41.48C187.234 41.9333 186.274 42.24 185.208 42.4C184.141 42.56 183.141 42.64 182.208 42.64ZM181.088 26.92C180.448 26.92 179.888 27.0267 179.408 27.24C178.954 27.4533 178.581 27.7333 178.288 28.08C177.994 28.4 177.768 28.7733 177.608 29.2C177.474 29.6 177.394 30.0133 177.368 30.44L184.208 29.32C184.128 28.7867 183.834 28.2533 183.328 27.72C182.821 27.1867 182.074 26.92 181.088 26.92Z" fill="#424242"/>
</svg>
