<svg width="190" height="35" viewBox="0 0 190 35" fill="none" xmlns="http://www.w3.org/2000/svg">
<path d="M8.67922 17.4231C7.50589 17.0231 6.43922 16.6231 5.47922 16.2231C4.51922 15.7964 3.69255 15.2898 2.99922 14.7031C2.30589 14.1164 1.75922 13.4231 1.35922 12.6231C0.985886 11.7964 0.799219 10.7964 0.799219 9.62311C0.799219 7.35644 1.66589 5.54311 3.39922 4.18311C5.15922 2.82311 7.61255 2.14311 10.7592 2.14311C11.9059 2.14311 12.9726 2.22311 13.9592 2.38311C14.9459 2.54311 15.7859 2.79644 16.4792 3.14311C17.1992 3.46311 17.7592 3.88978 18.1592 4.42311C18.5592 4.92978 18.7592 5.52978 18.7592 6.22311C18.7592 6.91644 18.5992 7.51644 18.2792 8.02311C17.9592 8.50311 17.5726 8.91644 17.1192 9.26311C16.5326 8.88978 15.7459 8.56978 14.7592 8.30311C13.7726 8.00978 12.6926 7.86311 11.5192 7.86311C10.3192 7.86311 9.43922 8.03644 8.87922 8.38311C8.31922 8.70311 8.03922 9.11644 8.03922 9.62311C8.03922 10.0231 8.21255 10.3564 8.55922 10.6231C8.90589 10.8631 9.42589 11.0898 10.1192 11.3031L12.2392 11.9831C14.7459 12.7831 16.6659 13.8098 17.9992 15.0631C19.3592 16.2898 20.0392 17.9698 20.0392 20.1031C20.0392 22.3698 19.1459 24.2098 17.3592 25.6231C15.5726 27.0098 12.9459 27.7031 9.47922 27.7031C8.25255 27.7031 7.10589 27.5964 6.03922 27.3831C4.99922 27.1964 4.07922 26.9164 3.27922 26.5431C2.50589 26.1431 1.89255 25.6631 1.43922 25.1031C1.01255 24.5164 0.799219 23.8498 0.799219 23.1031C0.799219 22.3298 1.02589 21.6764 1.47922 21.1431C1.93255 20.5831 2.42589 20.1564 2.95922 19.8631C3.70589 20.4498 4.61255 20.9564 5.67922 21.3831C6.77255 21.8098 7.95922 22.0231 9.23922 22.0231C10.5459 22.0231 11.4659 21.8231 11.9992 21.4231C12.5326 21.0231 12.7992 20.5564 12.7992 20.0231C12.7992 19.4898 12.5859 19.0898 12.1592 18.8231C11.7326 18.5298 11.1326 18.2498 10.3592 17.9831L8.67922 17.4231ZM30.7105 17.4231C29.5371 17.0231 28.4705 16.6231 27.5105 16.2231C26.5505 15.7964 25.7238 15.2898 25.0305 14.7031C24.3371 14.1164 23.7905 13.4231 23.3905 12.6231C23.0171 11.7964 22.8305 10.7964 22.8305 9.62311C22.8305 7.35644 23.6971 5.54311 25.4305 4.18311C27.1905 2.82311 29.6438 2.14311 32.7905 2.14311C33.9371 2.14311 35.0038 2.22311 35.9905 2.38311C36.9771 2.54311 37.8171 2.79644 38.5105 3.14311C39.2305 3.46311 39.7905 3.88978 40.1905 4.42311C40.5905 4.92978 40.7905 5.52978 40.7905 6.22311C40.7905 6.91644 40.6305 7.51644 40.3105 8.02311C39.9905 8.50311 39.6038 8.91644 39.1505 9.26311C38.5638 8.88978 37.7771 8.56978 36.7905 8.30311C35.8038 8.00978 34.7238 7.86311 33.5505 7.86311C32.3505 7.86311 31.4705 8.03644 30.9105 8.38311C30.3505 8.70311 30.0705 9.11644 30.0705 9.62311C30.0705 10.0231 30.2438 10.3564 30.5905 10.6231C30.9371 10.8631 31.4571 11.0898 32.1505 11.3031L34.2705 11.9831C36.7771 12.7831 38.6971 13.8098 40.0305 15.0631C41.3905 16.2898 42.0705 17.9698 42.0705 20.1031C42.0705 22.3698 41.1771 24.2098 39.3905 25.6231C37.6038 27.0098 34.9771 27.7031 31.5105 27.7031C30.2838 27.7031 29.1371 27.5964 28.0705 27.3831C27.0305 27.1964 26.1105 26.9164 25.3105 26.5431C24.5371 26.1431 23.9238 25.6631 23.4705 25.1031C23.0438 24.5164 22.8305 23.8498 22.8305 23.1031C22.8305 22.3298 23.0571 21.6764 23.5105 21.1431C23.9638 20.5831 24.4571 20.1564 24.9905 19.8631C25.7371 20.4498 26.6438 20.9564 27.7105 21.3831C28.8038 21.8098 29.9905 22.0231 31.2705 22.0231C32.5771 22.0231 33.4971 21.8231 34.0305 21.4231C34.5638 21.0231 34.8305 20.5564 34.8305 20.0231C34.8305 19.4898 34.6171 19.0898 34.1905 18.8231C33.7638 18.5298 33.1638 18.2498 32.3905 17.9831L30.7105 17.4231ZM51.178 3.54311C51.6313 3.27644 52.3113 3.02311 53.218 2.78311C54.1513 2.54311 55.0846 2.42311 56.018 2.42311C57.3513 2.42311 58.5246 2.62311 59.538 3.02311C60.578 3.39644 61.2446 3.99644 61.538 4.82311C62.018 6.20978 62.538 7.82311 63.098 9.66311C63.658 11.5031 64.218 13.4098 64.778 15.3831C65.338 17.3298 65.8846 19.2631 66.418 21.1831C66.9513 23.0764 67.418 24.7564 67.818 26.2231C67.498 26.5964 67.018 26.8898 66.378 27.1031C65.738 27.3431 64.978 27.4631 64.098 27.4631C63.458 27.4631 62.9113 27.4098 62.458 27.3031C62.0313 27.1964 61.6713 27.0364 61.378 26.8231C61.1113 26.6098 60.8846 26.3298 60.698 25.9831C60.538 25.6364 60.3913 25.2364 60.258 24.7831L59.538 22.0231H52.298C52.0846 22.8231 51.8713 23.6498 51.658 24.5031C51.4446 25.3564 51.2313 26.1831 51.018 26.9831C50.6446 27.1164 50.2446 27.2231 49.818 27.3031C49.418 27.4098 48.9246 27.4631 48.338 27.4631C46.978 27.4631 45.9646 27.2364 45.298 26.7831C44.658 26.3031 44.338 25.6498 44.338 24.8231C44.338 24.4498 44.3913 24.0764 44.498 23.7031C44.6046 23.3298 44.7246 22.8898 44.858 22.3831C45.0446 21.6631 45.298 20.7698 45.618 19.7031C45.9646 18.6364 46.338 17.4898 46.738 16.2631C47.138 15.0098 47.5646 13.7298 48.018 12.4231C48.4713 11.1164 48.898 9.88978 49.298 8.74311C49.698 7.56978 50.058 6.52978 50.378 5.62311C50.7246 4.71644 50.9913 4.02311 51.178 3.54311ZM55.978 8.70311C55.6046 9.82311 55.178 11.0764 54.698 12.4631C54.2446 13.8231 53.8313 15.2098 53.458 16.6231H58.418C58.0446 15.1831 57.658 13.7831 57.258 12.4231C56.8846 11.0364 56.538 9.79644 56.218 8.70311H55.978ZM88.1361 2.82311C88.3228 3.11644 88.4828 3.51644 88.6161 4.02311C88.7761 4.50311 88.8561 5.00978 88.8561 5.54311C88.8561 6.58311 88.6294 7.32978 88.1761 7.78311C87.7494 8.20978 87.1628 8.42311 86.4161 8.42311H78.0161V12.9431H86.7761C86.9894 13.2364 87.1628 13.6231 87.2961 14.1031C87.4561 14.5831 87.5361 15.0898 87.5361 15.6231C87.5361 16.6364 87.3094 17.3698 86.8561 17.8231C86.4294 18.2498 85.8428 18.4631 85.0961 18.4631H78.0961V26.9031C77.8028 26.9831 77.3361 27.0631 76.6961 27.1431C76.0828 27.2231 75.4694 27.2631 74.8561 27.2631C74.2428 27.2631 73.6961 27.2098 73.2161 27.1031C72.7628 27.0231 72.3761 26.8631 72.0561 26.6231C71.7361 26.3831 71.4961 26.0498 71.3361 25.6231C71.1761 25.1964 71.0961 24.6364 71.0961 23.9431V6.54311C71.0961 5.39644 71.4294 4.48978 72.0961 3.82311C72.7628 3.15644 73.6694 2.82311 74.8161 2.82311H88.1361Z" fill="#3396F4"/>
<path d="M101.208 27.7031C99.6343 27.7031 98.1677 27.4898 96.8077 27.0631C95.4743 26.6098 94.301 25.9431 93.2877 25.0631C92.301 24.1831 91.5143 23.0764 90.9277 21.7431C90.3677 20.4098 90.0877 18.8498 90.0877 17.0631C90.0877 15.3031 90.3677 13.7964 90.9277 12.5431C91.5143 11.2631 92.2743 10.2231 93.2077 9.42311C94.141 8.59644 95.2077 7.99644 96.4077 7.62311C97.6077 7.22311 98.8343 7.02311 100.088 7.02311C101.501 7.02311 102.781 7.23644 103.928 7.66311C105.101 8.08978 106.101 8.67644 106.928 9.42311C107.781 10.1698 108.434 11.0631 108.888 12.1031C109.368 13.1431 109.608 14.2764 109.608 15.5031C109.608 16.4098 109.354 17.1031 108.848 17.5831C108.341 18.0631 107.634 18.3698 106.728 18.5031L96.8477 19.9831C97.141 20.8631 97.741 21.5298 98.6477 21.9831C99.5543 22.4098 100.594 22.6231 101.768 22.6231C102.861 22.6231 103.888 22.4898 104.848 22.2231C105.834 21.9298 106.634 21.5964 107.248 21.2231C107.674 21.4898 108.034 21.8631 108.328 22.3431C108.621 22.8231 108.768 23.3298 108.768 23.8631C108.768 25.0631 108.208 25.9564 107.088 26.5431C106.234 26.9964 105.274 27.3031 104.208 27.4631C103.141 27.6231 102.141 27.7031 101.208 27.7031ZM100.088 11.9831C99.4477 11.9831 98.8877 12.0898 98.4077 12.3031C97.9543 12.5164 97.581 12.7964 97.2877 13.1431C96.9943 13.4631 96.7677 13.8364 96.6077 14.2631C96.4743 14.6631 96.3943 15.0764 96.3677 15.5031L103.208 14.3831C103.128 13.8498 102.834 13.3164 102.328 12.7831C101.821 12.2498 101.074 11.9831 100.088 11.9831ZM133.001 17.3431C133.001 18.9964 132.747 20.4764 132.241 21.7831C131.734 23.0631 131.014 24.1431 130.081 25.0231C129.174 25.9031 128.081 26.5698 126.801 27.0231C125.521 27.4764 124.094 27.7031 122.521 27.7031C120.947 27.7031 119.521 27.4631 118.241 26.9831C116.961 26.5031 115.854 25.8231 114.921 24.9431C114.014 24.0364 113.307 22.9431 112.801 21.6631C112.294 20.3831 112.041 18.9431 112.041 17.3431C112.041 15.7698 112.294 14.3431 112.801 13.0631C113.307 11.7831 114.014 10.7031 114.921 9.82311C115.854 8.91644 116.961 8.22311 118.241 7.74311C119.521 7.26311 120.947 7.02311 122.521 7.02311C124.094 7.02311 125.521 7.27644 126.801 7.78311C128.081 8.26311 129.174 8.95644 130.081 9.86311C131.014 10.7431 131.734 11.8231 132.241 13.1031C132.747 14.3831 133.001 15.7964 133.001 17.3431ZM119.001 17.3431C119.001 18.9698 119.307 20.2231 119.921 21.1031C120.561 21.9564 121.441 22.3831 122.561 22.3831C123.681 22.3831 124.534 21.9431 125.121 21.0631C125.734 20.1831 126.041 18.9431 126.041 17.3431C126.041 15.7431 125.734 14.5164 125.121 13.6631C124.507 12.7831 123.641 12.3431 122.521 12.3431C121.401 12.3431 120.534 12.7831 119.921 13.6631C119.307 14.5164 119.001 15.7431 119.001 17.3431ZM145.238 7.02311C146.838 7.02311 148.318 7.23644 149.678 7.66311C151.065 8.06311 152.252 8.68978 153.238 9.54311C154.225 10.3964 154.998 11.4764 155.558 12.7831C156.118 14.0631 156.398 15.5964 156.398 17.3831C156.398 19.0898 156.158 20.5831 155.678 21.8631C155.198 23.1431 154.518 24.2231 153.638 25.1031C152.758 25.9564 151.692 26.5964 150.438 27.0231C149.212 27.4498 147.838 27.6631 146.318 27.6631C145.172 27.6631 144.105 27.4898 143.118 27.1431V33.7831C142.852 33.8631 142.425 33.9431 141.838 34.0231C141.252 34.1298 140.652 34.1831 140.038 34.1831C139.452 34.1831 138.918 34.1431 138.438 34.0631C137.985 33.9831 137.598 33.8231 137.278 33.5831C136.958 33.3431 136.718 33.0098 136.558 32.5831C136.398 32.1831 136.318 31.6498 136.318 30.9831V11.7831C136.318 11.0631 136.465 10.4764 136.758 10.0231C137.078 9.56978 137.505 9.15644 138.038 8.78311C138.865 8.24978 139.892 7.82311 141.118 7.50311C142.345 7.18311 143.718 7.02311 145.238 7.02311ZM145.318 22.3031C148.065 22.3031 149.438 20.6631 149.438 17.3831C149.438 15.6764 149.092 14.4098 148.398 13.5831C147.732 12.7564 146.758 12.3431 145.478 12.3431C144.972 12.3431 144.518 12.4098 144.118 12.5431C143.718 12.6498 143.372 12.7831 143.078 12.9431V21.7431C143.398 21.9031 143.745 22.0364 144.118 22.1431C144.492 22.2498 144.892 22.3031 145.318 22.3031ZM166.637 27.0231C166.343 27.0764 165.903 27.1431 165.317 27.2231C164.757 27.3298 164.183 27.3831 163.597 27.3831C163.01 27.3831 162.477 27.3431 161.997 27.2631C161.543 27.1831 161.157 27.0231 160.837 26.7831C160.517 26.5431 160.263 26.2231 160.077 25.8231C159.917 25.3964 159.837 24.8498 159.837 24.1831V0.98311C160.13 0.929776 160.557 0.863109 161.117 0.78311C161.703 0.676443 162.29 0.62311 162.877 0.62311C163.463 0.62311 163.983 0.663109 164.437 0.743108C164.917 0.823109 165.317 0.983109 165.637 1.22311C165.957 1.46311 166.197 1.79644 166.357 2.22311C166.543 2.62311 166.637 3.15644 166.637 3.82311V27.0231ZM181.208 27.7031C179.634 27.7031 178.168 27.4898 176.808 27.0631C175.474 26.6098 174.301 25.9431 173.288 25.0631C172.301 24.1831 171.514 23.0764 170.928 21.7431C170.368 20.4098 170.088 18.8498 170.088 17.0631C170.088 15.3031 170.368 13.7964 170.928 12.5431C171.514 11.2631 172.274 10.2231 173.208 9.42311C174.141 8.59644 175.208 7.99644 176.408 7.62311C177.608 7.22311 178.834 7.02311 180.088 7.02311C181.501 7.02311 182.781 7.23644 183.928 7.66311C185.101 8.08978 186.101 8.67644 186.928 9.42311C187.781 10.1698 188.434 11.0631 188.888 12.1031C189.368 13.1431 189.608 14.2764 189.608 15.5031C189.608 16.4098 189.354 17.1031 188.848 17.5831C188.341 18.0631 187.634 18.3698 186.728 18.5031L176.848 19.9831C177.141 20.8631 177.741 21.5298 178.648 21.9831C179.554 22.4098 180.594 22.6231 181.768 22.6231C182.861 22.6231 183.888 22.4898 184.848 22.2231C185.834 21.9298 186.634 21.5964 187.248 21.2231C187.674 21.4898 188.034 21.8631 188.328 22.3431C188.621 22.8231 188.768 23.3298 188.768 23.8631C188.768 25.0631 188.208 25.9564 187.088 26.5431C186.234 26.9964 185.274 27.3031 184.208 27.4631C183.141 27.6231 182.141 27.7031 181.208 27.7031ZM180.088 11.9831C179.448 11.9831 178.888 12.0898 178.408 12.3031C177.954 12.5164 177.581 12.7964 177.288 13.1431C176.994 13.4631 176.768 13.8364 176.608 14.2631C176.474 14.6631 176.394 15.0764 176.368 15.5031L183.208 14.3831C183.128 13.8498 182.834 13.3164 182.328 12.7831C181.821 12.2498 181.074 11.9831 180.088 11.9831Z" fill="white"/>
</svg>
